# xmcd
# Track frame offsets:
# 150
# 14435
# 30249
# 43951
# 62464
# 80013
# 97715
# 115634
# 134752
# 148060
# 164995
# 180793
# 197065
# 213378
# 229471
# 246430
# 262743
# 278008
# 293723
# 306040
#
# Disc length: 4312 seconds
# Revision: 0
# Processed by: cddbd v1.5.2PL0 Copyright (c) Steve Scherf et al.
# Submitted via: VisiTrax 2.11.3.279 - For more info visit www.synapsa.com
#
DISCID=1d10d614
DTITLE=Various Artist - Double Cream 6-20 Years Of Nashville 1993-2013 Vo
DTITLE=l 2 CD 1
DYEAR=2014
DGENRE=Country
TTITLE0=Luke Bryan - That's My Kind Of Night
TTITLE1=Blake Shelton - Honey Bee
TTITLE2=Sugarland - It Happens
TTITLE3=Tim McGraw - Felt Good On My Lips
TTITLE4=Darius Rucker - Come Back Song
TTITLE5=Lady Antebellum - Need You Know
TTITLE6=Dierks Bentley - Home
TTITLE7=Lonestar - I'm Already There
TTITLE8=Trisha Yearwood - A Perfect Love
TTITLE9=David Lee Murphy - Dust On The Bottle
TTITLE10=Toby Keith - Should've Been A Cowboy
TTITLE11=Gretchen Wilson - Redneck Woman
TTITLE12=Steve Holy - Brand New Girlfriend
TTITLE13=Zac Brown Band - Keep Me In Mind
TTITLE14=Carrie Underwood - Jesus, Take The Wheel
TTITLE15=Billy Currington - Good Directions
TTITLE16=Deana Carter - We Danced Anyway
TTITLE17=Brooks and Dunn - My Maria
TTITLE18=Neal McCoy - Wink
TTITLE19=The Band Perry - All Your Life
EXTD=
EXTT0=
EXTT1=
EXTT2=
EXTT3=
EXTT4=
EXTT5=
EXTT6=
EXTT7=
EXTT8=
EXTT9=
EXTT10=
EXTT11=
EXTT12=
EXTT13=
EXTT14=
EXTT15=
EXTT16=
EXTT17=
EXTT18=
EXTT19=
PLAYORDER=
